<svg width="79" height="31" viewBox="0 0 79 31" fill="none" xmlns="http://www.w3.org/2000/svg">
<path d="M15.8 0.977998C11.46 0.977998 9.29 5.164 9.29 13.536V16.854C9.29 20.83 9.864 23.952 11.012 26.22C12.16 28.46 13.854 29.58 16.094 29.58C19.174 29.58 22.002 26.584 24.578 20.592H25.334L25.04 29.958H24.578C24.41 29.65 24.256 29.44 24.116 29.328C23.976 29.188 23.766 29.118 23.486 29.118C23.234 29.118 22.226 29.342 20.462 29.79C18.698 30.21 16.906 30.42 15.086 30.42C10.522 30.42 6.98 29.188 4.46 26.724C1.968 24.26 0.722 20.564 0.722 15.636C0.722 10.68 2.024 6.858 4.628 4.17C7.26 1.482 10.788 0.137999 15.212 0.137999C16.92 0.137999 18.586 0.361999 20.21 0.809998C21.862 1.23 22.828 1.44 23.108 1.44C23.388 1.44 23.598 1.384 23.738 1.272C23.878 1.132 24.032 0.907999 24.2 0.599998H24.662L24.998 9.714H24.242C22.982 6.886 21.68 4.73 20.336 3.246C19.02 1.734 17.508 0.977998 15.8 0.977998ZM40.1295 21.516L43.6155 9.42L41.0955 1.398H38.7015V0.599998H51.7215V1.398H49.2435L55.5015 21.264L60.5415 1.398H56.2995V0.599998H64.6995V1.398H61.9275L54.1995 30.42H50.4615L44.2455 11.436L38.7855 30.42H35.1315L24.5475 1.398H22.5735V0.599998H36.2235V1.398H33.2835L40.1295 21.516ZM71.4787 30.82C69.1281 30.82 67.3514 30.1367 66.1487 28.77C65.0007 27.3487 64.4267 25.654 64.4267 23.686C64.4267 21.6633 65.0281 19.9687 66.2307 18.602C67.4881 17.2353 69.2374 16.552 71.4787 16.552C73.7201 16.552 75.4967 17.126 76.8087 18.274C78.1207 19.422 78.7767 21.144 78.7767 23.44C78.7767 25.736 78.1481 27.54 76.8907 28.852C75.6881 30.164 73.8841 30.82 71.4787 30.82Z" fill="black"/>
</svg>
