<svg width="135" height="148" viewBox="0 0 135 148" fill="none" xmlns="http://www.w3.org/2000/svg">
<path fill-rule="evenodd" clip-rule="evenodd" d="M119.749 44.0757C119.749 58.4117 110.531 70.0329 99.1605 70.0329C87.7906 70.0329 78.5725 58.4117 78.5725 44.0757C78.5725 29.7396 87.7906 18.1185 99.1605 18.1185C110.531 18.1185 119.749 29.7396 119.749 44.0757" fill="#19141E"/>
<path d="M71.0284 146.906L70.1668 117.092C70.1668 117.092 106.314 119.977 114.047 115.951C114.047 115.951 123.498 67.1491 112.226 40.1241L111.998 39.0717L35.7164 30.1291L31.4399 74C28.8704 66.4039 7.6636 57.7906 2.12044 68.6681C-9.89275 92.2382 33.0608 108.109 33.0608 108.109L28.6991 147.263" fill="#CCCCCC"/>
<path opacity="0.398926" fill-rule="evenodd" clip-rule="evenodd" d="M70.1671 117.092L45.7919 111.854L70.0502 128.277L70.1671 117.092Z" fill="black"/>
<path fill-rule="evenodd" clip-rule="evenodd" d="M89.6519 73.4425L98.0744 94.0808L87.9802 94.2097L89.6519 73.4425Z" fill="black"/>
<path fill-rule="evenodd" clip-rule="evenodd" d="M80.6698 74.237C81.1717 77.0163 79.3297 79.6767 76.5573 80.1788C73.7839 80.6818 71.1292 78.8359 70.6281 76.0575C70.1262 73.2782 71.9673 70.6178 74.7406 70.1148C77.514 69.6127 80.1678 71.4577 80.6698 74.237" fill="black"/>
<path fill-rule="evenodd" clip-rule="evenodd" d="M108.974 74.237C109.476 77.0163 107.634 79.6767 104.861 80.1788C102.088 80.6818 99.4331 78.8359 98.9321 76.0575C98.4301 73.2782 100.271 70.6178 103.045 70.1148C105.818 69.6127 108.472 71.4577 108.974 74.237" fill="black"/>
<path d="M37.1043 81.4879C29.8717 69.0818 19.4074 65.2983 14.7104 64.1888C12.8372 58.7621 11.409 52.4685 10.4056 45.7749C7.71468 27.8606 20.7109 11.5161 31.2083 6.8228C41.8343 2.07318 60.1563 -4.50874 86.9751 4.42574C105.005 10.4365 116.53 -3.95396 127.14 2.19212C145.27 12.6974 128.406 58.69 82.4349 47.0062C49.5511 38.6482 48.7058 40.7448 48.424 46.82C47.5123 66.4574 44.4568 78.01 37.1043 81.4879V81.4879Z" fill="#2F2F3D"/>
<path fill-rule="evenodd" clip-rule="evenodd" d="M75.6294 94.9768C75.6294 94.9768 78.8703 100.879 85.8749 100.739Z" fill="white"/>
<path d="M75.6294 94.9768C75.6294 94.9768 78.8703 100.879 85.8749 100.739" stroke="#252535" stroke-width="4"/>
<path fill-rule="evenodd" clip-rule="evenodd" d="M87.2057 74.4839C87.2057 80.9451 81.9787 86.1823 75.5313 86.1823C69.0849 86.1823 63.8579 80.9451 63.8579 74.4839C63.8579 68.0228 69.0849 62.7847 75.5313 62.7847C81.9787 62.7847 87.2057 68.0228 87.2057 74.4839Z" stroke="#252535" stroke-width="4"/>
<path fill-rule="evenodd" clip-rule="evenodd" d="M116.6 74.4839C116.6 80.9451 111.373 86.1823 104.927 86.1823C98.4791 86.1823 93.2522 80.9451 93.2522 74.4839C93.2522 68.0228 98.4791 62.7847 104.927 62.7847C111.373 62.7847 116.6 68.0228 116.6 74.4839Z" stroke="#252535" stroke-width="4"/>
<path d="M92.3015 75.0262H87.2539" stroke="#252535" stroke-width="4"/>
<path d="M63.858 74.484H35.0205" stroke="#252535" stroke-width="4"/>
</svg>
